<?xml version="1.0" encoding="UTF-8" standalone="no"?>
<!-- Created with Inkscape (http://www.inkscape.org/) -->

<svg
   xmlns:dc="http://purl.org/dc/elements/1.1/"
   xmlns:cc="http://creativecommons.org/ns#"
   xmlns:rdf="http://www.w3.org/1999/02/22-rdf-syntax-ns#"
   xmlns:svg="http://www.w3.org/2000/svg"
   xmlns="http://www.w3.org/2000/svg"
   xmlns:sodipodi="http://sodipodi.sourceforge.net/DTD/sodipodi-0.dtd"
   xmlns:inkscape="http://www.inkscape.org/namespaces/inkscape"
   width="210mm"
   height="297mm"
   viewBox="0 0 744.09448819 1052.3622047"
   id="svg2"
   version="1.1"
   inkscape:version="0.91 r13725"
   sodipodi:docname="090727-memory-blocks.svg">
  <sodipodi:namedview
     id="base"
     pagecolor="#ffffff"
     bordercolor="#666666"
     borderopacity="1.0"
     inkscape:pageopacity="0.0"
     inkscape:pageshadow="2"
     inkscape:zoom="1.6834734"
     inkscape:cx="336.17022"
     inkscape:cy="689.14678"
     inkscape:document-units="px"
     inkscape:current-layer="layer1"
     showgrid="true"
     inkscape:window-width="3840"
     inkscape:window-height="2107"
     inkscape:window-x="0"
     inkscape:window-y="0"
     inkscape:window-maximized="1">
    <inkscape:grid
       type="xygrid"
       id="grid3413" />
  </sodipodi:namedview>
  <defs
     id="defs4" />
  <metadata
     id="metadata7">
    <rdf:RDF>
      <cc:Work
         rdf:about="">
        <dc:format>image/svg+xml</dc:format>
        <dc:type
           rdf:resource="http://purl.org/dc/dcmitype/StillImage" />
        <dc:title />
      </cc:Work>
    </rdf:RDF>
  </metadata>
  <g
     id="layer1"
     inkscape:groupmode="layer"
     inkscape:label="Layer 1">
    <path
       style="fill:#d4ff2a"
       d="m 144.14277,402.4625 c 7.25923,6.29823 14.84375,11.32914 19.32219,12.81664 5.43988,1.80684 8.09699,0.80558 13.15705,-4.95791 6.17157,-7.02952 10.15894,-8.23803 17.77669,-5.38787 8.71747,3.26162 18.03165,10.73455 20.89231,16.76224 l 1.69495,3.57143 0.007,44.10028 c -67.90624,-2.22697 29.1053,-10.4611 1.43557,6.97115 l -39.99999,5 -40.00001,-4.28572 c 0.16579,71.78847 -0.23183,-56.75854 0.17857,-79.26196 0.0982,0.0131 2.58929,2.11535 5.53572,4.67172 z"
       id="path3500-3"
       inkscape:connector-curvature="0"
       sodipodi:nodetypes="csssscccccccc" />
    <path
       style="fill:none;fill-rule:evenodd;stroke:#000000;stroke-width:1px;stroke-linecap:butt;stroke-linejoin:miter;stroke-opacity:1"
       d="m 137.85715,173.07646 80,0 0,200 c 0,0 -20,-20 -30,-20 -10,0 -10,20 -30,10 -20,-10 -20,-20 -20,-20 l 0,-170"
       id="path3427"
       inkscape:connector-curvature="0" />
    <text
       xml:space="preserve"
       style="font-style:normal;font-weight:normal;font-size:40px;line-height:125%;font-family:sans-serif;letter-spacing:0px;word-spacing:0px;fill:#000000;fill-opacity:1;stroke:none;stroke-width:1px;stroke-linecap:butt;stroke-linejoin:miter;stroke-opacity:1"
       x="120.71429"
       y="188.79076"
       id="text3429"
       sodipodi:linespacing="125%"><tspan
         sodipodi:role="line"
         id="tspan3431"
         x="120.71429"
         y="188.79076"
         style="font-size:15px">0</tspan></text>
    <path
       style="fill:none;fill-rule:evenodd;stroke:#000000;stroke-width:1px;stroke-linecap:butt;stroke-linejoin:miter;stroke-opacity:1"
       d="m 137.85715,193.07646 70,0"
       id="path3433"
       inkscape:connector-curvature="0" />
    <path
       style="fill:none;fill-rule:evenodd;stroke:#000000;stroke-width:1px;stroke-linecap:butt;stroke-linejoin:miter;stroke-opacity:1"
       d="m 137.85715,213.07646 70,0"
       id="path3435"
       inkscape:connector-curvature="0" />
    <path
       style="fill:none;fill-rule:evenodd;stroke:#000000;stroke-width:1px;stroke-linecap:butt;stroke-linejoin:miter;stroke-opacity:1"
       d="m 137.85715,233.79075 70,0"
       id="path3435-3"
       inkscape:connector-curvature="0" />
    <path
       style="fill:none;fill-rule:evenodd;stroke:#000000;stroke-width:1px;stroke-linecap:butt;stroke-linejoin:miter;stroke-opacity:1"
       d="m 137.14286,253.79075 70,0"
       id="path3435-6"
       inkscape:connector-curvature="0" />
    <text
       xml:space="preserve"
       style="font-style:normal;font-weight:normal;font-size:40px;line-height:125%;font-family:sans-serif;letter-spacing:0px;word-spacing:0px;fill:#000000;fill-opacity:1;stroke:none;stroke-width:1px;stroke-linecap:butt;stroke-linejoin:miter;stroke-opacity:1"
       x="120"
       y="211.6479"
       id="text3429-7"
       sodipodi:linespacing="125%"><tspan
         sodipodi:role="line"
         id="tspan3431-5"
         x="120"
         y="211.6479"
         style="font-size:15px">1</tspan></text>
    <text
       xml:space="preserve"
       style="font-style:normal;font-weight:normal;font-size:40px;line-height:125%;font-family:sans-serif;letter-spacing:0px;word-spacing:0px;fill:#000000;fill-opacity:1;stroke:none;stroke-width:1px;stroke-linecap:butt;stroke-linejoin:miter;stroke-opacity:1"
       x="119.28571"
       y="229.50505"
       id="text3429-3"
       sodipodi:linespacing="125%"><tspan
         sodipodi:role="line"
         id="tspan3431-56"
         x="119.28571"
         y="229.50505"
         style="font-size:15px">2</tspan></text>
    <text
       xml:space="preserve"
       style="font-style:normal;font-weight:normal;font-size:40px;line-height:125%;font-family:sans-serif;letter-spacing:0px;word-spacing:0px;fill:#000000;fill-opacity:1;stroke:none;stroke-width:1px;stroke-linecap:butt;stroke-linejoin:miter;stroke-opacity:1"
       x="118.57141"
       y="250.21933"
       id="text3429-2"
       sodipodi:linespacing="125%"><tspan
         sodipodi:role="line"
         id="tspan3431-9"
         x="118.57141"
         y="250.21933"
         style="font-size:15px">3</tspan></text>
    <text
       xml:space="preserve"
       style="font-style:normal;font-weight:normal;font-size:40px;line-height:125%;font-family:sans-serif;letter-spacing:0px;word-spacing:0px;fill:#000000;fill-opacity:1;stroke:none;stroke-width:1px;stroke-linecap:butt;stroke-linejoin:miter;stroke-opacity:1"
       x="118.57144"
       y="270.93362"
       id="text3429-1"
       sodipodi:linespacing="125%"><tspan
         sodipodi:role="line"
         id="tspan3431-2"
         x="118.57144"
         y="270.93362"
         style="font-size:15px">4</tspan></text>
    <path
       style="fill:#d4ff2a"
       d="m 211.28572,365.95244 c -7.25923,-6.29823 -14.84375,-11.32914 -19.32219,-12.81664 -5.43988,-1.80684 -8.09699,-0.80558 -13.15705,4.95791 -6.17157,7.02952 -10.15894,8.23803 -17.77669,5.38787 -8.71747,-3.26162 -18.03165,-10.73455 -20.89231,-16.76224 l -1.69495,-3.57143 -0.007,-44.10028 -0.007,-44.10028 34.40487,-0.18544 c 26.75581,-0.1442 34.47102,-0.38393 34.70238,-1.07828 0.23529,-0.70612 -6.96048,-0.89286 -34.40487,-0.89286 l -34.70238,0 0,-8.92178 0,-8.92177 34.76201,-0.18537 c 27.04158,-0.1442 34.82809,-0.38366 35.05953,-1.07822 0.23531,-0.7062 -7.03192,-0.89286 -34.76202,-0.89286 l -35.05952,0 0,-9.27892 0,-9.27892 34.76201,-0.18536 c 27.04158,-0.1442 34.82809,-0.38367 35.05953,-1.07823 0.23531,-0.7062 -7.03192,-0.89286 -34.76202,-0.89286 l -35.05952,0 0,-8.92177 0,-8.92178 34.76201,-0.18536 c 27.04158,-0.1442 34.82809,-0.38367 35.05953,-1.07823 0.23531,-0.7062 -7.03192,-0.89286 -34.76202,-0.89286 l -35.05952,0 0,-8.92857 0,-8.92857 39.28571,0 39.28572,0 0,98.21429 c 0,54.01785 -0.0804,98.20359 -0.17857,98.19053 -0.0982,-0.0131 -2.58929,-2.11535 -5.53572,-4.67172 z"
       id="path3500"
       inkscape:connector-curvature="0" />
    <path
       style="fill:none;fill-rule:evenodd;stroke:#000000;stroke-width:1px;stroke-linecap:butt;stroke-linejoin:miter;stroke-opacity:1"
       d="m 217.85715,478.07646 0,-51.42857 c 0,0 0,-10 -20,-20 -20,-10 -20,10 -30,10 -10,0 -30,-20 -30,-20 l -0.71429,80.71428"
       id="path3427-7"
       inkscape:connector-curvature="0"
       sodipodi:nodetypes="cssccc" />
    <path
       style="fill:none;fill-rule:evenodd;stroke:#000000;stroke-width:1px;stroke-linecap:butt;stroke-linejoin:miter;stroke-opacity:1"
       d="m 207.85715,436.64789 -70,0"
       id="path3435-0"
       inkscape:connector-curvature="0" />
    <path
       style="fill:none;fill-rule:evenodd;stroke:#000000;stroke-width:1px;stroke-linecap:butt;stroke-linejoin:miter;stroke-opacity:1"
       d="m 207.85715,457.36218 -70,0"
       id="path3435-3-6"
       inkscape:connector-curvature="0" />
    <path
       style="fill:none;fill-rule:evenodd;stroke:#000000;stroke-width:1px;stroke-linecap:butt;stroke-linejoin:miter;stroke-opacity:1"
       d="m 217.85715,477.36218 -80.71429,0"
       id="path3435-6-2"
       inkscape:connector-curvature="0"
       sodipodi:nodetypes="cc" />
    <text
       xml:space="preserve"
       style="font-style:normal;font-weight:normal;font-size:40px;line-height:125%;font-family:sans-serif;letter-spacing:0px;word-spacing:0px;fill:#000000;fill-opacity:1;stroke:none;stroke-width:1px;stroke-linecap:butt;stroke-linejoin:miter;stroke-opacity:1"
       x="94.999969"
       y="452.36218"
       id="text3429-3-8"
       sodipodi:linespacing="125%"><tspan
         sodipodi:role="line"
         id="tspan3431-56-7"
         x="94.999969"
         y="452.36218"
         style="font-size:15px">n - 2</tspan></text>
    <text
       xml:space="preserve"
       style="font-style:normal;font-weight:normal;font-size:40px;line-height:125%;font-family:sans-serif;letter-spacing:0px;word-spacing:0px;fill:#000000;fill-opacity:1;stroke:none;stroke-width:1px;stroke-linecap:butt;stroke-linejoin:miter;stroke-opacity:1"
       x="97.142853"
       y="473.07645"
       id="text3429-2-9"
       sodipodi:linespacing="125%"><tspan
         sodipodi:role="line"
         id="tspan3431-9-2"
         x="97.142853"
         y="473.07645"
         style="font-size:15px">n - 1</tspan></text>
    <text
       xml:space="preserve"
       style="font-style:normal;font-weight:normal;font-size:40px;line-height:125%;font-family:sans-serif;letter-spacing:0px;word-spacing:0px;fill:#000000;fill-opacity:1;stroke:none;stroke-width:1px;stroke-linecap:butt;stroke-linejoin:miter;stroke-opacity:1"
       x="119.28571"
       y="290.2193"
       id="text3429-1-7"
       sodipodi:linespacing="125%"><tspan
         sodipodi:role="line"
         id="tspan3431-2-5"
         x="119.28571"
         y="290.2193"
         style="font-size:15px">5</tspan></text>
    <text
       xml:space="preserve"
       style="font-style:normal;font-weight:normal;font-size:40px;line-height:125%;font-family:sans-serif;letter-spacing:0px;word-spacing:0px;fill:#000000;fill-opacity:1;stroke:none;stroke-width:1px;stroke-linecap:butt;stroke-linejoin:miter;stroke-opacity:1"
       x="118.57144"
       y="308.07645"
       id="text3429-1-9"
       sodipodi:linespacing="125%"><tspan
         sodipodi:role="line"
         id="tspan3431-2-2"
         x="118.57144"
         y="308.07645"
         style="font-size:15px">6</tspan></text>
    <path
       style="fill:none;fill-rule:evenodd;stroke:#000000;stroke-width:1px;stroke-linecap:butt;stroke-linejoin:miter;stroke-opacity:1"
       d="m 206.42858,275.21932 -70,0"
       id="path3435-0-2"
       inkscape:connector-curvature="0" />
    <path
       style="fill:none;fill-rule:evenodd;stroke:#000000;stroke-width:1px;stroke-linecap:butt;stroke-linejoin:miter;stroke-opacity:1"
       d="m 206.42858,294.50503 -70,0"
       id="path3435-0-8"
       inkscape:connector-curvature="0" />
    <path
       style="fill:none;fill-rule:evenodd;stroke:#000000;stroke-width:1px;stroke-linecap:butt;stroke-linejoin:miter;stroke-opacity:1"
       d="m 207.14286,316.64789 -70,0"
       id="path3435-0-9"
       inkscape:connector-curvature="0" />
    <text
       xml:space="preserve"
       style="font-style:normal;font-weight:normal;font-size:40px;line-height:125%;font-family:sans-serif;letter-spacing:0px;word-spacing:0px;fill:#000000;fill-opacity:1;stroke:none;stroke-width:1px;stroke-linecap:butt;stroke-linejoin:miter;stroke-opacity:1"
       x="157.14287"
       y="187.36218"
       id="text3429-1-9-7"
       sodipodi:linespacing="125%"><tspan
         sodipodi:role="line"
         id="tspan3431-2-2-3"
         x="157.14287"
         y="187.36218"
         style="font-size:15px">byte</tspan></text>
    <text
       xml:space="preserve"
       style="font-style:normal;font-weight:normal;font-size:40px;line-height:125%;font-family:sans-serif;letter-spacing:0px;word-spacing:0px;fill:#000000;fill-opacity:1;stroke:none;stroke-width:1px;stroke-linecap:butt;stroke-linejoin:miter;stroke-opacity:1"
       x="157.14287"
       y="208.07646"
       id="text3429-1-9-7-6"
       sodipodi:linespacing="125%"><tspan
         sodipodi:role="line"
         id="tspan3431-2-2-3-1"
         x="157.14287"
         y="208.07646"
         style="font-size:15px">byte</tspan></text>
    <text
       xml:space="preserve"
       style="font-style:normal;font-weight:normal;font-size:40px;line-height:125%;font-family:sans-serif;text-align:center;letter-spacing:0px;word-spacing:0px;text-anchor:middle;fill:#000000;fill-opacity:1;stroke:none;stroke-width:1px;stroke-linecap:butt;stroke-linejoin:miter;stroke-opacity:1"
       x="175.78929"
       y="145.21931"
       id="text3429-1-9-7-2"
       sodipodi:linespacing="125%"><tspan
         sodipodi:role="line"
         id="tspan3431-2-2-3-9"
         x="175.78929"
         y="145.21931"
         style="font-size:15px;text-align:center;text-anchor:middle">source memory exp</tspan><tspan
         sodipodi:role="line"
         x="175.78929"
         y="163.96931"
         style="font-size:15px;text-align:center;text-anchor:middle"
         id="tspan3692">block in device A</tspan></text>
    <path
       style="fill:#aaeeff"
       d="m 426.28563,403.89107 c 7.25923,6.29823 14.84375,11.32914 19.32219,12.81664 5.43988,1.80684 8.09699,0.80558 13.15705,-4.95791 6.17157,-7.02952 10.15894,-8.23803 17.77669,-5.38787 8.71747,3.26162 18.03165,10.73455 20.89231,16.76224 l 1.69495,3.57143 0.007,44.10028 c -67.90624,-2.22697 29.1053,-10.4611 1.43557,6.97115 l -39.99999,5 -40.00001,-4.28572 c 0.16579,71.78847 -0.23183,-56.75854 0.17857,-79.26196 0.0982,0.0131 2.58929,2.11535 5.53572,4.67172 z"
       id="path3500-3-3"
       inkscape:connector-curvature="0"
       sodipodi:nodetypes="csssscccccccc" />
    <path
       style="fill:none;fill-rule:evenodd;stroke:#000000;stroke-width:1px;stroke-linecap:butt;stroke-linejoin:miter;stroke-opacity:1"
       d="m 420.00001,174.50503 80,0 0,200 c 0,0 -20,-20 -30,-20 -10,0 -10,20 -30,10 -20,-10 -20,-20 -20,-20 l 0,-170"
       id="path3427-1"
       inkscape:connector-curvature="0" />
    <text
       xml:space="preserve"
       style="font-style:normal;font-weight:normal;font-size:40px;line-height:125%;font-family:sans-serif;letter-spacing:0px;word-spacing:0px;fill:#000000;fill-opacity:1;stroke:none;stroke-width:1px;stroke-linecap:butt;stroke-linejoin:miter;stroke-opacity:1"
       x="402.85715"
       y="190.21933"
       id="text3429-9"
       sodipodi:linespacing="125%"><tspan
         sodipodi:role="line"
         id="tspan3431-4"
         x="402.85715"
         y="190.21933"
         style="font-size:15px">0</tspan></text>
    <path
       style="fill:none;fill-rule:evenodd;stroke:#000000;stroke-width:1px;stroke-linecap:butt;stroke-linejoin:miter;stroke-opacity:1"
       d="m 420.00001,194.50503 70,0"
       id="path3433-7"
       inkscape:connector-curvature="0" />
    <path
       style="fill:none;fill-rule:evenodd;stroke:#000000;stroke-width:1px;stroke-linecap:butt;stroke-linejoin:miter;stroke-opacity:1"
       d="m 420.00001,214.50503 70,0"
       id="path3435-8"
       inkscape:connector-curvature="0" />
    <path
       style="fill:none;fill-rule:evenodd;stroke:#000000;stroke-width:1px;stroke-linecap:butt;stroke-linejoin:miter;stroke-opacity:1"
       d="m 420.00001,235.21932 70,0"
       id="path3435-3-4"
       inkscape:connector-curvature="0" />
    <path
       style="fill:none;fill-rule:evenodd;stroke:#000000;stroke-width:1px;stroke-linecap:butt;stroke-linejoin:miter;stroke-opacity:1"
       d="m 419.28572,255.21932 70,0"
       id="path3435-6-5"
       inkscape:connector-curvature="0" />
    <text
       xml:space="preserve"
       style="font-style:normal;font-weight:normal;font-size:40px;line-height:125%;font-family:sans-serif;letter-spacing:0px;word-spacing:0px;fill:#000000;fill-opacity:1;stroke:none;stroke-width:1px;stroke-linecap:butt;stroke-linejoin:miter;stroke-opacity:1"
       x="402.14285"
       y="213.07648"
       id="text3429-7-0"
       sodipodi:linespacing="125%"><tspan
         sodipodi:role="line"
         id="tspan3431-5-3"
         x="402.14285"
         y="213.07648"
         style="font-size:15px">1</tspan></text>
    <text
       xml:space="preserve"
       style="font-style:normal;font-weight:normal;font-size:40px;line-height:125%;font-family:sans-serif;letter-spacing:0px;word-spacing:0px;fill:#000000;fill-opacity:1;stroke:none;stroke-width:1px;stroke-linecap:butt;stroke-linejoin:miter;stroke-opacity:1"
       x="401.42856"
       y="230.93362"
       id="text3429-3-6"
       sodipodi:linespacing="125%"><tspan
         sodipodi:role="line"
         id="tspan3431-56-1"
         x="401.42856"
         y="230.93362"
         style="font-size:15px">2</tspan></text>
    <text
       xml:space="preserve"
       style="font-style:normal;font-weight:normal;font-size:40px;line-height:125%;font-family:sans-serif;letter-spacing:0px;word-spacing:0px;fill:#000000;fill-opacity:1;stroke:none;stroke-width:1px;stroke-linecap:butt;stroke-linejoin:miter;stroke-opacity:1"
       x="400.71426"
       y="251.6479"
       id="text3429-2-0"
       sodipodi:linespacing="125%"><tspan
         sodipodi:role="line"
         id="tspan3431-9-6"
         x="400.71426"
         y="251.6479"
         style="font-size:15px">3</tspan></text>
    <text
       xml:space="preserve"
       style="font-style:normal;font-weight:normal;font-size:40px;line-height:125%;font-family:sans-serif;letter-spacing:0px;word-spacing:0px;fill:#000000;fill-opacity:1;stroke:none;stroke-width:1px;stroke-linecap:butt;stroke-linejoin:miter;stroke-opacity:1"
       x="400.71429"
       y="272.36218"
       id="text3429-1-3"
       sodipodi:linespacing="125%"><tspan
         sodipodi:role="line"
         id="tspan3431-2-20"
         x="400.71429"
         y="272.36218"
         style="font-size:15px">4</tspan></text>
    <path
       style="fill:#aaeeff"
       d="m 493.42858,367.38101 c -7.25923,-6.29823 -14.84375,-11.32914 -19.32219,-12.81664 -5.43988,-1.80684 -8.09699,-0.80558 -13.15705,4.95791 -6.17157,7.02952 -10.15894,8.23803 -17.77669,5.38787 -8.71747,-3.26162 -18.03165,-10.73455 -20.89231,-16.76224 l -1.69495,-3.57143 -0.007,-44.10028 -0.007,-44.10028 34.40487,-0.18544 c 26.75581,-0.1442 34.47102,-0.38393 34.70238,-1.07828 0.23529,-0.70612 -6.96048,-0.89286 -34.40487,-0.89286 l -34.70238,0 0,-8.92178 0,-8.92177 34.76201,-0.18537 c 27.04158,-0.1442 34.82809,-0.38366 35.05953,-1.07822 0.23531,-0.7062 -7.03192,-0.89286 -34.76202,-0.89286 l -35.05952,0 0,-9.27892 0,-9.27892 34.76201,-0.18536 c 27.04158,-0.1442 34.82809,-0.38367 35.05953,-1.07823 0.23531,-0.7062 -7.03192,-0.89286 -34.76202,-0.89286 l -35.05952,0 0,-8.92177 0,-8.92178 34.76201,-0.18536 c 27.04158,-0.1442 34.82809,-0.38367 35.05953,-1.07823 0.23531,-0.7062 -7.03192,-0.89286 -34.76202,-0.89286 l -35.05952,0 0,-8.92857 0,-8.92857 39.28571,0 39.28572,0 0,98.21429 c 0,54.01785 -0.0804,98.20359 -0.17857,98.19053 -0.0982,-0.0131 -2.58929,-2.11535 -5.53572,-4.67172 z"
       id="path3500-6"
       inkscape:connector-curvature="0" />
    <path
       style="fill:none;fill-rule:evenodd;stroke:#000000;stroke-width:1px;stroke-linecap:butt;stroke-linejoin:miter;stroke-opacity:1"
       d="m 500.00001,479.50503 0,-51.42857 c 0,0 0,-10 -20,-20 -20,-10 -20,10 -30,10 -10,0 -30,-20 -30,-20 l -0.71429,80.71428"
       id="path3427-7-1"
       inkscape:connector-curvature="0"
       sodipodi:nodetypes="cssccc" />
    <path
       style="fill:none;fill-rule:evenodd;stroke:#000000;stroke-width:1px;stroke-linecap:butt;stroke-linejoin:miter;stroke-opacity:1"
       d="m 490.00001,438.07646 -70,0"
       id="path3435-0-5"
       inkscape:connector-curvature="0" />
    <path
       style="fill:none;fill-rule:evenodd;stroke:#000000;stroke-width:1px;stroke-linecap:butt;stroke-linejoin:miter;stroke-opacity:1"
       d="m 490.00001,458.79075 -70,0"
       id="path3435-3-6-5"
       inkscape:connector-curvature="0" />
    <path
       style="fill:none;fill-rule:evenodd;stroke:#000000;stroke-width:1px;stroke-linecap:butt;stroke-linejoin:miter;stroke-opacity:1"
       d="m 500.00001,478.79075 -80.71429,0"
       id="path3435-6-2-4"
       inkscape:connector-curvature="0"
       sodipodi:nodetypes="cc" />
    <text
       xml:space="preserve"
       style="font-style:normal;font-weight:normal;font-size:40px;line-height:125%;font-family:sans-serif;letter-spacing:0px;word-spacing:0px;fill:#000000;fill-opacity:1;stroke:none;stroke-width:1px;stroke-linecap:butt;stroke-linejoin:miter;stroke-opacity:1"
       x="377.14282"
       y="453.79077"
       id="text3429-3-8-7"
       sodipodi:linespacing="125%"><tspan
         sodipodi:role="line"
         id="tspan3431-56-7-6"
         x="377.14282"
         y="453.79077"
         style="font-size:15px">n - 2</tspan></text>
    <text
       xml:space="preserve"
       style="font-style:normal;font-weight:normal;font-size:40px;line-height:125%;font-family:sans-serif;letter-spacing:0px;word-spacing:0px;fill:#000000;fill-opacity:1;stroke:none;stroke-width:1px;stroke-linecap:butt;stroke-linejoin:miter;stroke-opacity:1"
       x="379.28571"
       y="474.505"
       id="text3429-2-9-5"
       sodipodi:linespacing="125%"><tspan
         sodipodi:role="line"
         id="tspan3431-9-2-6"
         x="379.28571"
         y="474.505"
         style="font-size:15px">n - 1</tspan></text>
    <text
       xml:space="preserve"
       style="font-style:normal;font-weight:normal;font-size:40px;line-height:125%;font-family:sans-serif;letter-spacing:0px;word-spacing:0px;fill:#000000;fill-opacity:1;stroke:none;stroke-width:1px;stroke-linecap:butt;stroke-linejoin:miter;stroke-opacity:1"
       x="401.42856"
       y="291.64786"
       id="text3429-1-7-9"
       sodipodi:linespacing="125%"><tspan
         sodipodi:role="line"
         id="tspan3431-2-5-3"
         x="401.42856"
         y="291.64786"
         style="font-size:15px">5</tspan></text>
    <text
       xml:space="preserve"
       style="font-style:normal;font-weight:normal;font-size:40px;line-height:125%;font-family:sans-serif;letter-spacing:0px;word-spacing:0px;fill:#000000;fill-opacity:1;stroke:none;stroke-width:1px;stroke-linecap:butt;stroke-linejoin:miter;stroke-opacity:1"
       x="400.71429"
       y="309.505"
       id="text3429-1-9-74"
       sodipodi:linespacing="125%"><tspan
         sodipodi:role="line"
         id="tspan3431-2-2-5"
         x="400.71429"
         y="309.505"
         style="font-size:15px">6</tspan></text>
    <path
       style="fill:none;fill-rule:evenodd;stroke:#000000;stroke-width:1px;stroke-linecap:butt;stroke-linejoin:miter;stroke-opacity:1"
       d="m 488.57144,276.64789 -70,0"
       id="path3435-0-2-2"
       inkscape:connector-curvature="0" />
    <path
       style="fill:none;fill-rule:evenodd;stroke:#000000;stroke-width:1px;stroke-linecap:butt;stroke-linejoin:miter;stroke-opacity:1"
       d="m 488.57144,295.9336 -70,0"
       id="path3435-0-8-5"
       inkscape:connector-curvature="0" />
    <path
       style="fill:none;fill-rule:evenodd;stroke:#000000;stroke-width:1px;stroke-linecap:butt;stroke-linejoin:miter;stroke-opacity:1"
       d="m 489.28572,318.07646 -70,0"
       id="path3435-0-9-4"
       inkscape:connector-curvature="0" />
    <text
       xml:space="preserve"
       style="font-style:normal;font-weight:normal;font-size:40px;line-height:125%;font-family:sans-serif;letter-spacing:0px;word-spacing:0px;fill:#000000;fill-opacity:1;stroke:none;stroke-width:1px;stroke-linecap:butt;stroke-linejoin:miter;stroke-opacity:1"
       x="439.28571"
       y="188.79076"
       id="text3429-1-9-7-7"
       sodipodi:linespacing="125%"><tspan
         sodipodi:role="line"
         id="tspan3431-2-2-3-4"
         x="439.28571"
         y="188.79076"
         style="font-size:15px">byte</tspan></text>
    <text
       xml:space="preserve"
       style="font-style:normal;font-weight:normal;font-size:40px;line-height:125%;font-family:sans-serif;letter-spacing:0px;word-spacing:0px;fill:#000000;fill-opacity:1;stroke:none;stroke-width:1px;stroke-linecap:butt;stroke-linejoin:miter;stroke-opacity:1"
       x="439.28571"
       y="209.50504"
       id="text3429-1-9-7-6-4"
       sodipodi:linespacing="125%"><tspan
         sodipodi:role="line"
         id="tspan3431-2-2-3-1-3"
         x="439.28571"
         y="209.50504"
         style="font-size:15px">byte</tspan></text>
    <text
       xml:space="preserve"
       style="font-style:normal;font-weight:normal;font-size:40px;line-height:125%;font-family:sans-serif;text-align:center;letter-spacing:0px;word-spacing:0px;text-anchor:middle;fill:#000000;fill-opacity:1;stroke:none;stroke-width:1px;stroke-linecap:butt;stroke-linejoin:miter;stroke-opacity:1"
       x="457.93213"
       y="146.64789"
       id="text3429-1-9-7-2-0"
       sodipodi:linespacing="125%"><tspan
         sodipodi:role="line"
         x="457.93213"
         y="146.64789"
         style="font-size:15px;text-align:center;text-anchor:middle"
         id="tspan3692-8">target memory block exp</tspan><tspan
         sodipodi:role="line"
         x="457.93213"
         y="165.39789"
         style="font-size:15px;text-align:center;text-anchor:middle"
         id="tspan4216">in device B</tspan></text>
    <path
       style="fill:none;fill-rule:evenodd;stroke:#000000;stroke-width:1px;stroke-linecap:butt;stroke-linejoin:miter;stroke-opacity:1"
       d="m 240,292.36218 c 0,0 30,10 60,10 30,0 50,0 50,0 l -20,-30 50,40 -40,40 10,-30 c 0,0 -30,-10 -70,0 l -40,10 z"
       id="path3831"
       inkscape:connector-curvature="0" />
    <path
       style="fill:#ffaaaa"
       d="m 342.71429,347.45001 c 0,-0.37796 1.83637,-6.22667 4.08084,-12.99713 2.24447,-6.77047 3.90191,-12.48888 3.6832,-12.70759 -0.86409,-0.86408 -13.61016,-3.22594 -21.70617,-4.02217 -10.66052,-1.04844 -25.78299,-0.45574 -36.85789,1.44459 -6.43552,1.10427 -43.30961,9.87497 -50.09284,11.91486 -1.16863,0.35143 -1.25,-0.86438 -1.25,-18.67722 0,-17.8539 0.0787,-19.02269 1.25,-18.56948 3.05402,1.18167 21.55813,5.41642 29.57793,6.76905 4.84821,0.8177 13.63635,1.79813 19.52921,2.17872 11.73438,0.75788 59.1412,0.98499 59.83952,0.28667 0.23911,-0.23912 -3.1066,-5.73269 -7.43491,-12.20795 -4.32831,-6.47526 -7.71107,-11.93179 -7.51724,-12.12561 0.30127,-0.30128 37.82377,29.23586 41.35539,32.55433 1.16703,1.09659 0.15505,2.2548 -16.60714,19.00694 -9.81745,9.81155 -17.8499,17.52995 -17.8499,17.15199 z"
       id="path3864"
       inkscape:connector-curvature="0" />
  </g>
</svg>
